# xmcd CD database file
#
# Track frame offsets:
#	150
#	19277
#	43804
#	61881
#	91058
#
# Disc length: 1443 seconds
#
# Revision: 3
# Processed by: cddbd v1.5.2PL0 Copyright (c) Steve Scherf et al.
# Submitted via: CDex 1.70beta2
#
DISCID=3805a105
DTITLE=Ben Harper - Gold to Me
DYEAR=1996
DGENRE=Blues
TTITLE0=Gold to Me (Radio Edit)
TTITLE1=Excuse Me Mr. (Album Version)
TTITLE2=Burn One Down (Live)
TTITLE3=Don't Take That Attitude to Your Grave (LIve)
TTITLE4=Whipping Boy (Remix)
EXTD=YEAR: 1996
EXTT0=
EXTT1=
EXTT2=
EXTT3=
EXTT4=
PLAYORDER=
